<svg width="61" height="59" viewBox="0 0 61 59" fill="none" xmlns="http://www.w3.org/2000/svg">
<path d="M48.0094 23.9886V22.2813C48.0094 12.3607 40.0161 4.30774 30.1426 4.30774C20.2691 4.30774 12.2758 12.3607 12.2758 22.2813V23.9886C12.2758 25.8415 11.7308 27.6524 10.7101 29.1932L7.94247 33.3708C5.04203 37.749 7.25106 43.7084 12.3101 45.0968C23.9852 48.3011 36.3 48.3011 47.9751 45.0968C53.0342 43.7084 55.2432 37.749 52.3428 33.3708L49.5752 29.1932C48.5545 27.6524 48.0094 25.8415 48.0094 23.9886Z" stroke="white" stroke-width="2"/>
<path d="M18.8967 46.5001C20.5337 50.7351 24.9507 53.7693 30.1427 53.7693C35.3347 53.7693 39.7517 50.7351 41.3887 46.5001" stroke="white" stroke-width="2" stroke-linecap="round"/>
</svg>
