<svg width="60" height="59" viewBox="0 0 60 59" fill="none" xmlns="http://www.w3.org/2000/svg">
<path d="M5.99829 29.5711C5.99829 26.7795 5.99937 24.7564 6.15582 23.1421C6.31019 21.5492 6.61039 20.4321 7.16664 19.4468C7.72281 18.4616 8.52324 17.629 9.80522 16.6771C11.1047 15.7122 12.8336 14.6706 15.2205 13.2343L20.2187 10.2266C22.7418 8.70838 24.5712 7.60892 26.1138 6.88159C27.6359 6.16392 28.8042 5.84619 29.9894 5.84619C31.1746 5.84619 32.3429 6.16392 33.865 6.88158C35.4076 7.60892 37.237 8.70837 39.7601 10.2266L44.7583 13.2343C47.1452 14.6706 48.8741 15.7122 50.1736 16.6771C51.4555 17.629 52.256 18.4616 52.8121 19.4468C53.3684 20.4321 53.6686 21.5492 53.823 23.1421C53.9794 24.7564 53.9805 26.7795 53.9805 29.5711V33.2567C53.9805 38.0109 53.9784 41.4763 53.6234 44.1245C53.2722 46.7443 52.5922 48.4139 51.3445 49.6652C50.0972 50.9162 48.4336 51.5976 45.8228 51.9496C43.183 52.3056 39.7283 52.3077 34.9876 52.3077H24.9912C20.2505 52.3077 16.7958 52.3056 14.156 51.9496C11.5452 51.5976 9.88161 50.9162 8.63431 49.6652C7.38662 48.4139 6.7066 46.7443 6.35541 44.1245C6.0004 41.4763 5.99829 38.0109 5.99829 33.2567V29.5711Z" stroke="white" stroke-width="2"/>
<path d="M37.4866 43.6155H22.4919" stroke="white" stroke-width="1.5" stroke-linecap="round"/>
</svg>
