<svg width="61" height="59" viewBox="0 0 61 59" fill="none" xmlns="http://www.w3.org/2000/svg">
<path d="M7.78405 12.0363C7.42272 12.5355 7.21066 13.189 7.06784 13.9076C6.92185 14.6422 6.83014 15.5441 6.77014 16.6125C6.65063 18.7405 6.65063 21.6681 6.65063 25.5105V25.548V25.5549V25.5617V25.5686V25.5755V25.5823V25.5892V25.5961V25.6029V25.6098V25.6167V25.6236V25.6305V25.6373V25.6442V25.6511V25.658V25.6649V25.6718V25.6787V25.6856V25.6925V25.6994V25.7063V25.7132V25.7201V25.7271V25.734V25.7409V25.7478V25.7547V25.7617V25.7686V25.7755V25.7825V25.7894V25.7963V25.8033V25.8102V25.8172V25.8241V25.8311V25.838V25.845V25.8519V25.8589V25.8658V25.8728V25.8798V25.8867V25.8937V25.9007V25.9077V25.9146V25.9216V25.9286V25.9356V25.9426V25.9496V25.9565V25.9635V25.9705V25.9775V25.9845V25.9915V25.9985V26.0055V26.0125V26.0196V26.0266V26.0336V26.0406V26.0476V26.0546V26.0617V26.0687V26.0757V26.0828V26.0898V26.0968V26.1039V26.1109V26.1179V26.125V26.132V26.1391V26.1461V26.1532V26.1603V26.1673V26.1744V26.1814V26.1885V26.1956V26.2026V26.2097V26.2168V26.2239V26.2309V26.238V26.2451V26.2522V26.2593V26.2664V26.2735V26.2806V26.2877V26.2948V26.3019V26.309V26.3161V26.3232V26.3303V26.3374V26.3445V26.3517V26.3588V26.3659V26.373V26.3802V26.3873V26.3944V26.4015V26.4087V26.4158V26.423V26.4301V26.4373V26.4444V26.4516V26.4587V26.4659V26.473V26.4802V26.4873V26.4945V26.5017V26.5088V26.516V26.5232V26.5304V26.5375V26.5447V26.5519V26.5591V26.5663V26.5735V26.5807V26.5879V26.5951V26.6023V26.6095V26.6167V26.6239V26.6311V26.6383V26.6455V26.6527V26.6599V26.6672V26.6744V26.6816V26.6888V26.6961V26.7033V26.7105V26.7178V26.725V26.7323V26.7395V26.7467V26.754V26.7612V26.7685V26.7757V26.783V26.7903V26.7975V26.8048V26.8121V26.8193V26.8266V26.8339V26.8412V26.8484V26.8557V26.863V26.8703V26.8776V26.8849V26.8922V26.8994V26.9067V26.914V26.9213V26.9286V26.936V26.9433V26.9506V26.9579V26.9652V26.9725V26.9798V26.9872V26.9945V27.0018V27.0091V27.0165V27.0238V27.0312V27.0385V27.0458V27.0532V27.0605V27.0679V27.0752V27.0826V27.0899V27.0973V27.1046V27.112V27.1194V27.1267V27.1341V27.1415V27.1489V27.1562V27.1636V27.171V27.1784V27.1858V27.1932V27.2005V27.2079V27.2153V27.2227V27.2301V27.2375V27.2449V27.2523V27.2598V27.2672V27.2746V27.282V27.2894V27.2968V27.3043V27.3117V27.3191V27.3265V27.334V27.3414V27.3489V27.3563V27.3637V27.3712V27.3786V27.3861V27.3935V27.401V27.4084V27.4159V27.4234V27.4308V27.4383V27.4458V27.4532V27.4607V27.4682V27.4757V27.4831V27.4906V27.4981V27.5056V27.5131V27.5206V27.5281V27.5356V27.5431V27.5506V27.5581V27.5656V27.5731V27.5806V27.5881V27.5956V27.6031V27.6107V27.6182V27.6257V27.6332V27.6408V27.6483V27.6558V27.6634V27.6709V27.6785V27.686V27.6935V27.7011V27.7086V27.7162V27.7238V27.7313V27.7389V27.7464V27.754V27.7616V27.7691V27.7767V27.7843V27.7919V27.7994V27.807V27.8146V27.8222V27.8298V27.8374V27.845V27.8526V27.8602V27.8678V27.8754V27.883V27.8906V27.8982V27.9058V27.9134V27.921V27.9287V27.9363V27.9439V27.9515V27.9592V27.9668V27.9744V27.9821V27.9897V27.9974V28.005V28.0126V28.0203V28.0279V28.0356V28.0432V28.0509V28.0586V28.0662V28.0739V28.0816V28.0892V28.0969V28.1046V28.1123V28.1199V28.1276V28.1353V28.143V28.1507V28.1584V28.1661V28.1738V28.1815V28.1892V28.1969V28.2046V28.2123V28.22V28.2277V28.2354V28.2431V28.2509V28.2586V28.2663V28.274V28.2818V28.2895V28.2972V28.305V28.3127V28.3205V28.3282V28.3359V28.3437V28.3514V28.3592V28.367V28.3747V28.3825V28.3902V28.398V28.4058V28.4135V28.4213V28.4291V28.4369V28.4447V28.4524V28.4602V28.468V28.4758V28.4836V28.4914V28.4992V28.507V28.5148V28.5226V28.5304V28.5382V28.546V28.5538V28.5617V28.5695V28.5773V28.5851V28.5929V28.6008V28.6086V28.6164V28.6243V28.6321V28.64V28.6478V28.6556V28.6635V28.6713V28.6792V28.687V28.6949V28.7028V28.7106V28.7185V28.7264V28.7342V28.7421V28.75V28.7579V28.7657V28.7736V28.7815V28.7894V28.7973V28.8052V28.8131V28.821V28.8289V28.8368V28.8447V28.8526V28.8605V28.8684V28.8763V28.8842V28.8921V28.9001V28.908V28.9159V28.9238V28.9318V28.9397V28.9476V28.9556V28.9635V28.9715V28.9794V28.9873V28.9953V29.0033V29.0112V29.0192V29.0271V29.0351V29.043V29.051V29.059V29.067V29.0749V29.0829V29.0909V29.0989V29.1069V29.1148V29.1228V29.1308V29.1388V29.1468V29.1548V29.1628V29.1708V29.1788V29.1868V29.1948V29.2029V29.2109V29.2189V29.2269V29.2349V29.243V29.251V29.259V29.267V29.2751V29.2831V29.2912V29.2992V29.3072V29.3153V29.3233V29.3314V29.3395V29.3475V29.3556V29.3636C6.65063 43.6593 17.7607 50.536 24.5009 53.3907L24.541 53.4077C25.4111 53.7762 26.1507 54.0895 26.9968 54.2995C27.8694 54.5161 28.8179 54.6153 30.1426 54.6153C31.4674 54.6153 32.4159 54.5161 33.2885 54.2995C34.1345 54.0895 34.8741 53.7763 35.7443 53.4077L35.7844 53.3907C42.5245 50.536 53.6346 43.6593 53.6346 29.3636V29.3556V29.3475V29.3395V29.3314V29.3233V29.3153V29.3072V29.2992V29.2912V29.2831V29.2751V29.267V29.259V29.251V29.243V29.2349V29.2269V29.2189V29.2109V29.2029V29.1948V29.1868V29.1788V29.1708V29.1628V29.1548V29.1468V29.1388V29.1308V29.1228V29.1148V29.1069V29.0989V29.0909V29.0829V29.0749V29.067V29.059V29.051V29.043V29.0351V29.0271V29.0192V29.0112V29.0033V28.9953V28.9873V28.9794V28.9715V28.9635V28.9556V28.9476V28.9397V28.9318V28.9238V28.9159V28.908V28.9001V28.8921V28.8842V28.8763V28.8684V28.8605V28.8526V28.8447V28.8368V28.8289V28.821V28.8131V28.8052V28.7973V28.7894V28.7815V28.7736V28.7657V28.7579V28.75V28.7421V28.7342V28.7264V28.7185V28.7106V28.7028V28.6949V28.687V28.6792V28.6713V28.6635V28.6556V28.6478V28.64V28.6321V28.6243V28.6164V28.6086V28.6008V28.5929V28.5851V28.5773V28.5695V28.5617V28.5538V28.546V28.5382V28.5304V28.5226V28.5148V28.507V28.4992V28.4914V28.4836V28.4758V28.468V28.4602V28.4524V28.4447V28.4369V28.4291V28.4213V28.4135V28.4058V28.398V28.3902V28.3825V28.3747V28.367V28.3592V28.3514V28.3437V28.3359V28.3282V28.3205V28.3127V28.305V28.2972V28.2895V28.2818V28.274V28.2663V28.2586V28.2509V28.2431V28.2354V28.2277V28.22V28.2123V28.2046V28.1969V28.1892V28.1815V28.1738V28.1661V28.1584V28.1507V28.143V28.1353V28.1276V28.1199V28.1123V28.1046V28.0969V28.0892V28.0816V28.0739V28.0662V28.0586V28.0509V28.0432V28.0356V28.0279V28.0203V28.0126V28.005V27.9973V27.9897V27.9821V27.9744V27.9668V27.9592V27.9515V27.9439V27.9363V27.9287V27.921V27.9134V27.9058V27.8982V27.8906V27.883V27.8754V27.8678V27.8602V27.8526V27.845V27.8374V27.8298V27.8222V27.8146V27.807V27.7994V27.7919V27.7843V27.7767V27.7691V27.7616V27.754V27.7464V27.7389V27.7313V27.7238V27.7162V27.7086V27.7011V27.6935V27.686V27.6785V27.6709V27.6634V27.6558V27.6483V27.6408V27.6332V27.6257V27.6182V27.6107V27.6031V27.5956V27.5881V27.5806V27.5731V27.5656V27.5581V27.5506V27.5431V27.5356V27.5281V27.5206V27.5131V27.5056V27.4981V27.4906V27.4831V27.4757V27.4682V27.4607V27.4532V27.4458V27.4383V27.4308V27.4234V27.4159V27.4084V27.401V27.3935V27.3861V27.3786V27.3712V27.3637V27.3563V27.3489V27.3414V27.334V27.3265V27.3191V27.3117V27.3043V27.2968V27.2894V27.282V27.2746V27.2672V27.2598V27.2523V27.2449V27.2375V27.2301V27.2227V27.2153V27.2079V27.2005V27.1932V27.1858V27.1784V27.171V27.1636V27.1562V27.1489V27.1415V27.1341V27.1267V27.1194V27.112V27.1046V27.0973V27.0899V27.0826V27.0752V27.0679V27.0605V27.0532V27.0458V27.0385V27.0312V27.0238V27.0165V27.0091V27.0018V26.9945V26.9872V26.9798V26.9725V26.9652V26.9579V26.9506V26.9433V26.936V26.9286V26.9213V26.914V26.9067V26.8994V26.8921V26.8849V26.8776V26.8703V26.863V26.8557V26.8484V26.8412V26.8339V26.8266V26.8193V26.8121V26.8048V26.7975V26.7903V26.783V26.7757V26.7685V26.7612V26.754V26.7467V26.7395V26.7323V26.725V26.7178V26.7105V26.7033V26.6961V26.6888V26.6816V26.6744V26.6672V26.6599V26.6527V26.6455V26.6383V26.6311V26.6239V26.6167V26.6095V26.6023V26.5951V26.5879V26.5807V26.5735V26.5663V26.5591V26.5519V26.5447V26.5375V26.5304V26.5232V26.516V26.5088V26.5017V26.4945V26.4873V26.4802V26.473V26.4659V26.4587V26.4516V26.4444V26.4373V26.4301V26.423V26.4158V26.4087V26.4015V26.3944V26.3873V26.3801V26.373V26.3659V26.3588V26.3517V26.3445V26.3374V26.3303V26.3232V26.3161V26.309V26.3019V26.2948V26.2877V26.2806V26.2735V26.2664V26.2593V26.2522V26.2451V26.238V26.2309V26.2239V26.2168V26.2097V26.2026V26.1956V26.1885V26.1814V26.1744V26.1673V26.1603V26.1532V26.1461V26.1391V26.132V26.125V26.1179V26.1109V26.1039V26.0968V26.0898V26.0828V26.0757V26.0687V26.0617V26.0546V26.0476V26.0406V26.0336V26.0266V26.0196V26.0125V26.0055V25.9985V25.9915V25.9845V25.9775V25.9705V25.9635V25.9565V25.9496V25.9426V25.9356V25.9286V25.9216V25.9146V25.9077V25.9007V25.8937V25.8867V25.8798V25.8728V25.8658V25.8589V25.8519V25.845V25.838V25.8311V25.8241V25.8172V25.8102V25.8033V25.7963V25.7894V25.7825V25.7755V25.7686V25.7617V25.7547V25.7478V25.7409V25.734V25.7271V25.7201V25.7132V25.7063V25.6994V25.6925V25.6856V25.6787V25.6718V25.6649V25.658V25.6511V25.6442V25.6373V25.6305V25.6236V25.6167V25.6098V25.6029V25.5961V25.5892V25.5823V25.5755V25.5686V25.5617V25.5549V25.548V25.5107C53.6346 21.6682 53.6346 18.7405 53.5151 16.6125C53.4551 15.5441 53.3634 14.6422 53.2174 13.9076C53.0746 13.189 52.8625 12.5355 52.5012 12.0363C52.1387 11.5355 51.5774 11.1275 50.932 10.7641C50.2711 10.392 49.4293 10.0165 48.4145 9.61675C46.3925 8.82034 43.5544 7.8784 39.8268 6.64125L39.792 6.62971L38.3605 6.15461L38.1733 6.09246C34.4351 4.85159 32.3329 4.15381 30.1426 4.15381C27.9523 4.15381 25.8502 4.85159 22.112 6.09246C22.05 6.11302 21.9876 6.13374 21.9248 6.1546L20.4932 6.62971L20.4583 6.64129C16.7308 7.87842 13.8927 8.82035 11.8708 9.61675C10.8559 10.0165 10.0142 10.392 9.35329 10.7641C8.7079 11.1275 8.14659 11.5355 7.78405 12.0363Z" stroke="white" stroke-width="2"/>
<path d="M23.8948 30.3537L27.4649 34.2306L36.3903 24.5383" stroke="white" stroke-width="2" stroke-linecap="round" stroke-linejoin="round"/>
</svg>
