<svg width="61" height="59" viewBox="0 0 61 59" fill="none" xmlns="http://www.w3.org/2000/svg">
<path d="M30.1426 54.4615C38.2567 54.4615 44.8877 48.076 44.8877 40.1346C44.8877 35.5987 42.7182 31.5627 39.3499 28.9434C38.8845 28.5815 38.6399 28.1022 38.6399 27.6502V12.2692C38.6399 7.67336 34.8062 4 30.1426 4C25.479 4 21.6452 7.67336 21.6452 12.2692V27.6502C21.6452 28.1022 21.4006 28.5815 20.9353 28.9434L21.5491 29.7328L20.9353 28.9434C17.567 31.5627 15.3975 35.5987 15.3975 40.1346C15.3975 48.076 22.0284 54.4615 30.1426 54.4615Z" stroke="white" stroke-width="2"/>
<path d="M30.1421 47.192C34.1155 47.192 37.3898 44.0611 37.3898 40.1344C37.3898 36.2076 34.1155 33.0767 30.1421 33.0767C26.1686 33.0767 22.8943 36.2076 22.8943 40.1344C22.8943 44.0611 26.1686 47.192 30.1421 47.192Z" stroke="white" stroke-width="2"/>
<path d="M30.1426 34.077V12.2693" stroke="white" stroke-width="2" stroke-linecap="round"/>
</svg>
