<svg width="64" height="63" viewBox="0 0 64 63" fill="none" xmlns="http://www.w3.org/2000/svg">
<path d="M31.99 1C14.9041 1 1 14.4361 1 31.075C1 47.7141 14.9041 61.15 31.99 61.15C49.076 61.15 62.98 47.7141 62.98 31.075C62.98 14.4361 49.076 1 31.99 1Z" fill="#FEB26C" stroke="white" stroke-width="2"/>
<path d="M31.9901 32.075C38.0341 32.075 42.9867 27.3173 42.9867 21.3833C42.9867 15.4495 38.0341 10.6917 31.9901 10.6917C25.9461 10.6917 20.9934 15.4495 20.9934 21.3833C20.9934 27.3173 25.9461 32.075 31.9901 32.075Z" fill="#FEB26C" stroke="white" stroke-width="2"/>
<mask id="path-3-outside-1_2034_28" maskUnits="userSpaceOnUse" x="9.99658" y="38.7666" width="44" height="14" fill="black">
<rect fill="white" x="9.99658" y="38.7666" width="44" height="14"/>
<path d="M11.9966 52.7465C11.9966 47.5139 15.901 40.7666 21.9932 40.7666H41.9866C48.0789 40.7666 51.9832 47.5139 51.9832 52.7465"/>
</mask>
<path d="M11.9966 52.7465C11.9966 47.5139 15.901 40.7666 21.9932 40.7666H41.9866C48.0789 40.7666 51.9832 47.5139 51.9832 52.7465" fill="#FEB26C"/>
<path d="M13.9966 52.7465C13.9966 50.5758 14.8247 47.9958 16.3162 45.9864C17.7948 43.9945 19.7552 42.7666 21.9932 42.7666V38.7666C18.139 38.7666 15.1011 40.9123 13.1044 43.6023C11.1207 46.2747 9.99658 49.6846 9.99658 52.7465H13.9966ZM21.9932 42.7666H41.9866V38.7666H21.9932V42.7666ZM41.9866 42.7666C44.2246 42.7666 46.1851 43.9945 47.6636 45.9864C49.1552 47.9958 49.9832 50.5758 49.9832 52.7465H53.9832C53.9832 49.6846 52.8592 46.2747 50.8755 43.6023C48.8787 40.9123 45.8408 38.7666 41.9866 38.7666V42.7666Z" fill="white" mask="url(#path-3-outside-1_2034_28)"/>
</svg>
